<?xml version="1.0" ?><!DOCTYPE svg  PUBLIC '-//W3C//DTD SVG 1.1//EN'  'http://www.w3.org/Graphics/SVG/1.1/DTD/svg11.dtd'><svg xmlns="http://www.w3.org/2000/svg" xmlns:xlink="http://www.w3.org/1999/xlink" xmlns:serif="http://www.serif.com/" width="100%" height="100%" viewBox="0 0 64 64" version="1.1" xml:space="preserve" style="fill-rule:evenodd;clip-rule:evenodd;stroke-linejoin:round;stroke-miterlimit:2;fill:rgb(255, 255, 255);"><g><path d="M41.973,3C41.973,1.895 41.078,1 39.973,1L24,1C22.895,1 22,1.895 22,3L22,30L16,30C15.191,30 14.462,30.487 14.152,31.235C13.843,31.982 14.014,32.842 14.586,33.414L30.586,49.414C31.367,50.195 32.633,50.195 33.414,49.414L49.414,33.414C49.986,32.842 50.157,31.982 49.848,31.235C49.538,30.487 48.809,30 48,30L41.973,30L41.973,3Z"/><g transform="matrix(1,0,0,1,1,2)"><path d="M62,53.75C62,51.68 60.32,50 58.25,50L3.75,50C1.68,50 0,51.68 0,53.75L0,57.25C0,59.32 1.68,61 3.75,61L58.25,61C60.32,61 62,59.32 62,57.25L62,53.75ZM4,54L4,57L58,57L58,54L4,54Z"/></g></g></svg>